<mxfile host="app.diagrams.net" agent="Mozilla/5.0 (Windows NT 10.0; Win64; x64) AppleWebKit/537.36 (KHTML, like Gecko) Chrome/138.0.0.0 Safari/537.36 Edg/138.0.0.0" version="28.0.7">
  <diagram name="Page-1" id="kVYMygGIg2Dsf7kWMVqv">
    <mxGraphModel dx="697" dy="618" grid="0" gridSize="10" guides="1" tooltips="1" connect="1" arrows="1" fold="1" page="1" pageScale="1" pageWidth="850" pageHeight="1100" math="0" shadow="0">
      <root>
        <mxCell id="0" />
        <mxCell id="1" parent="0" />
        <mxCell id="9DDESfRtM6QVncBbzeUB-1" value="&lt;font face=&quot;Comic Sans MS&quot;&gt;&lt;b&gt;Warehouses&lt;/b&gt;&lt;/font&gt;" style="swimlane;fontStyle=0;childLayout=stackLayout;horizontal=1;startSize=30;horizontalStack=0;resizeParent=1;resizeParentMax=0;resizeLast=0;collapsible=1;marginBottom=0;whiteSpace=wrap;html=1;fillColor=#f8cecc;strokeColor=#b85450;" vertex="1" parent="1">
          <mxGeometry x="57" y="208" width="140" height="120" as="geometry" />
        </mxCell>
        <mxCell id="9DDESfRtM6QVncBbzeUB-2" value="&lt;font face=&quot;Comic Sans MS&quot;&gt;warehouse_id&lt;/font&gt;" style="text;strokeColor=none;fillColor=none;align=left;verticalAlign=middle;spacingLeft=4;spacingRight=4;overflow=hidden;points=[[0,0.5],[1,0.5]];portConstraint=eastwest;rotatable=0;whiteSpace=wrap;html=1;" vertex="1" parent="9DDESfRtM6QVncBbzeUB-1">
          <mxGeometry y="30" width="140" height="30" as="geometry" />
        </mxCell>
        <mxCell id="9DDESfRtM6QVncBbzeUB-3" value="&lt;font face=&quot;Comic Sans MS&quot;&gt;warehouse_name&lt;/font&gt;" style="text;strokeColor=none;fillColor=none;align=left;verticalAlign=middle;spacingLeft=4;spacingRight=4;overflow=hidden;points=[[0,0.5],[1,0.5]];portConstraint=eastwest;rotatable=0;whiteSpace=wrap;html=1;" vertex="1" parent="9DDESfRtM6QVncBbzeUB-1">
          <mxGeometry y="60" width="140" height="30" as="geometry" />
        </mxCell>
        <mxCell id="9DDESfRtM6QVncBbzeUB-4" value="&lt;font face=&quot;Comic Sans MS&quot;&gt;location&lt;/font&gt;" style="text;strokeColor=none;fillColor=none;align=left;verticalAlign=middle;spacingLeft=4;spacingRight=4;overflow=hidden;points=[[0,0.5],[1,0.5]];portConstraint=eastwest;rotatable=0;whiteSpace=wrap;html=1;" vertex="1" parent="9DDESfRtM6QVncBbzeUB-1">
          <mxGeometry y="90" width="140" height="30" as="geometry" />
        </mxCell>
        <mxCell id="9DDESfRtM6QVncBbzeUB-43" value="" style="endArrow=none;html=1;rounded=0;entryX=0;entryY=0.5;entryDx=0;entryDy=0;exitX=0;exitY=0.5;exitDx=0;exitDy=0;" edge="1" parent="9DDESfRtM6QVncBbzeUB-1" source="9DDESfRtM6QVncBbzeUB-2" target="9DDESfRtM6QVncBbzeUB-2">
          <mxGeometry width="50" height="50" relative="1" as="geometry">
            <mxPoint x="-74" y="97" as="sourcePoint" />
            <mxPoint x="-24" y="47" as="targetPoint" />
          </mxGeometry>
        </mxCell>
        <mxCell id="9DDESfRtM6QVncBbzeUB-5" value="&lt;font face=&quot;Comic Sans MS&quot;&gt;&lt;b&gt;Products&lt;/b&gt;&lt;/font&gt;" style="swimlane;fontStyle=0;childLayout=stackLayout;horizontal=1;startSize=30;horizontalStack=0;resizeParent=1;resizeParentMax=0;resizeLast=0;collapsible=1;marginBottom=0;whiteSpace=wrap;html=1;fillColor=#dae8fc;strokeColor=#6c8ebf;" vertex="1" parent="1">
          <mxGeometry x="694" y="206" width="140" height="120" as="geometry" />
        </mxCell>
        <mxCell id="9DDESfRtM6QVncBbzeUB-6" value="&lt;font face=&quot;Comic Sans MS&quot;&gt;product_id&lt;/font&gt;" style="text;strokeColor=none;fillColor=none;align=left;verticalAlign=middle;spacingLeft=4;spacingRight=4;overflow=hidden;points=[[0,0.5],[1,0.5]];portConstraint=eastwest;rotatable=0;whiteSpace=wrap;html=1;" vertex="1" parent="9DDESfRtM6QVncBbzeUB-5">
          <mxGeometry y="30" width="140" height="30" as="geometry" />
        </mxCell>
        <mxCell id="9DDESfRtM6QVncBbzeUB-7" value="&lt;font face=&quot;Comic Sans MS&quot;&gt;product_name&lt;/font&gt;" style="text;strokeColor=none;fillColor=none;align=left;verticalAlign=middle;spacingLeft=4;spacingRight=4;overflow=hidden;points=[[0,0.5],[1,0.5]];portConstraint=eastwest;rotatable=0;whiteSpace=wrap;html=1;" vertex="1" parent="9DDESfRtM6QVncBbzeUB-5">
          <mxGeometry y="60" width="140" height="30" as="geometry" />
        </mxCell>
        <mxCell id="9DDESfRtM6QVncBbzeUB-8" value="&lt;font face=&quot;Comic Sans MS&quot;&gt;category&lt;/font&gt;" style="text;strokeColor=none;fillColor=none;align=left;verticalAlign=middle;spacingLeft=4;spacingRight=4;overflow=hidden;points=[[0,0.5],[1,0.5]];portConstraint=eastwest;rotatable=0;whiteSpace=wrap;html=1;" vertex="1" parent="9DDESfRtM6QVncBbzeUB-5">
          <mxGeometry y="90" width="140" height="30" as="geometry" />
        </mxCell>
        <mxCell id="9DDESfRtM6QVncBbzeUB-9" value="&lt;font face=&quot;Comic Sans MS&quot;&gt;&lt;b&gt;Drivers&lt;/b&gt;&lt;/font&gt;" style="swimlane;fontStyle=0;childLayout=stackLayout;horizontal=1;startSize=30;horizontalStack=0;resizeParent=1;resizeParentMax=0;resizeLast=0;collapsible=1;marginBottom=0;whiteSpace=wrap;html=1;fillColor=#f5f5f5;fontColor=#333333;strokeColor=#666666;" vertex="1" parent="1">
          <mxGeometry x="62" y="403" width="140" height="90" as="geometry" />
        </mxCell>
        <mxCell id="9DDESfRtM6QVncBbzeUB-10" value="&lt;font face=&quot;Comic Sans MS&quot;&gt;driver_id&lt;/font&gt;" style="text;strokeColor=none;fillColor=none;align=left;verticalAlign=middle;spacingLeft=4;spacingRight=4;overflow=hidden;points=[[0,0.5],[1,0.5]];portConstraint=eastwest;rotatable=0;whiteSpace=wrap;html=1;" vertex="1" parent="9DDESfRtM6QVncBbzeUB-9">
          <mxGeometry y="30" width="140" height="30" as="geometry" />
        </mxCell>
        <mxCell id="9DDESfRtM6QVncBbzeUB-11" value="&lt;font face=&quot;Comic Sans MS&quot;&gt;driver_name&lt;/font&gt;" style="text;strokeColor=none;fillColor=none;align=left;verticalAlign=middle;spacingLeft=4;spacingRight=4;overflow=hidden;points=[[0,0.5],[1,0.5]];portConstraint=eastwest;rotatable=0;whiteSpace=wrap;html=1;" vertex="1" parent="9DDESfRtM6QVncBbzeUB-9">
          <mxGeometry y="60" width="140" height="30" as="geometry" />
        </mxCell>
        <mxCell id="9DDESfRtM6QVncBbzeUB-13" value="&lt;font face=&quot;Comic Sans MS&quot;&gt;&lt;b&gt;Shipments&lt;/b&gt;&lt;/font&gt;" style="swimlane;fontStyle=0;childLayout=stackLayout;horizontal=1;startSize=30;horizontalStack=0;resizeParent=1;resizeParentMax=0;resizeLast=0;collapsible=1;marginBottom=0;whiteSpace=wrap;html=1;shadow=0;fillColor=#e1d5e7;strokeColor=#9673a6;" vertex="1" parent="1">
          <mxGeometry x="293" y="178" width="140" height="150" as="geometry" />
        </mxCell>
        <mxCell id="9DDESfRtM6QVncBbzeUB-14" value="&lt;font face=&quot;Comic Sans MS&quot;&gt;shipment_id&lt;/font&gt;" style="text;strokeColor=none;fillColor=none;align=left;verticalAlign=middle;spacingLeft=4;spacingRight=4;overflow=hidden;points=[[0,0.5],[1,0.5]];portConstraint=eastwest;rotatable=0;whiteSpace=wrap;html=1;" vertex="1" parent="9DDESfRtM6QVncBbzeUB-13">
          <mxGeometry y="30" width="140" height="30" as="geometry" />
        </mxCell>
        <mxCell id="9DDESfRtM6QVncBbzeUB-15" value="&lt;font face=&quot;Comic Sans MS&quot;&gt;warehouse_id&lt;/font&gt;" style="text;strokeColor=none;fillColor=none;align=left;verticalAlign=middle;spacingLeft=4;spacingRight=4;overflow=hidden;points=[[0,0.5],[1,0.5]];portConstraint=eastwest;rotatable=0;whiteSpace=wrap;html=1;" vertex="1" parent="9DDESfRtM6QVncBbzeUB-13">
          <mxGeometry y="60" width="140" height="30" as="geometry" />
        </mxCell>
        <mxCell id="9DDESfRtM6QVncBbzeUB-17" value="&lt;font face=&quot;Comic Sans MS&quot;&gt;driver_id&lt;/font&gt;" style="text;strokeColor=none;fillColor=none;align=left;verticalAlign=middle;spacingLeft=4;spacingRight=4;overflow=hidden;points=[[0,0.5],[1,0.5]];portConstraint=eastwest;rotatable=0;whiteSpace=wrap;html=1;" vertex="1" parent="9DDESfRtM6QVncBbzeUB-13">
          <mxGeometry y="90" width="140" height="30" as="geometry" />
        </mxCell>
        <mxCell id="9DDESfRtM6QVncBbzeUB-16" value="&lt;font face=&quot;Comic Sans MS&quot;&gt;shipment_date&lt;/font&gt;" style="text;strokeColor=none;fillColor=none;align=left;verticalAlign=middle;spacingLeft=4;spacingRight=4;overflow=hidden;points=[[0,0.5],[1,0.5]];portConstraint=eastwest;rotatable=0;whiteSpace=wrap;html=1;" vertex="1" parent="9DDESfRtM6QVncBbzeUB-13">
          <mxGeometry y="120" width="140" height="30" as="geometry" />
        </mxCell>
        <mxCell id="9DDESfRtM6QVncBbzeUB-18" value="&lt;font face=&quot;Comic Sans MS&quot;&gt;&lt;b&gt;Shipment_Items&lt;/b&gt;&lt;/font&gt;" style="swimlane;fontStyle=0;childLayout=stackLayout;horizontal=1;startSize=30;horizontalStack=0;resizeParent=1;resizeParentMax=0;resizeLast=0;collapsible=1;marginBottom=0;whiteSpace=wrap;html=1;shadow=0;fillColor=#ffe6cc;strokeColor=#d79b00;" vertex="1" parent="1">
          <mxGeometry x="487" y="146" width="140" height="150" as="geometry" />
        </mxCell>
        <mxCell id="9DDESfRtM6QVncBbzeUB-19" value="&lt;font face=&quot;Comic Sans MS&quot;&gt;shipment_item&lt;/font&gt;" style="text;strokeColor=none;fillColor=none;align=left;verticalAlign=middle;spacingLeft=4;spacingRight=4;overflow=hidden;points=[[0,0.5],[1,0.5]];portConstraint=eastwest;rotatable=0;whiteSpace=wrap;html=1;" vertex="1" parent="9DDESfRtM6QVncBbzeUB-18">
          <mxGeometry y="30" width="140" height="30" as="geometry" />
        </mxCell>
        <mxCell id="9DDESfRtM6QVncBbzeUB-20" value="&lt;font face=&quot;Comic Sans MS&quot;&gt;shipment_id&lt;/font&gt;" style="text;strokeColor=none;fillColor=none;align=left;verticalAlign=middle;spacingLeft=4;spacingRight=4;overflow=hidden;points=[[0,0.5],[1,0.5]];portConstraint=eastwest;rotatable=0;whiteSpace=wrap;html=1;" vertex="1" parent="9DDESfRtM6QVncBbzeUB-18">
          <mxGeometry y="60" width="140" height="30" as="geometry" />
        </mxCell>
        <mxCell id="9DDESfRtM6QVncBbzeUB-21" value="&lt;font face=&quot;Comic Sans MS&quot;&gt;product_id&lt;/font&gt;" style="text;strokeColor=none;fillColor=none;align=left;verticalAlign=middle;spacingLeft=4;spacingRight=4;overflow=hidden;points=[[0,0.5],[1,0.5]];portConstraint=eastwest;rotatable=0;whiteSpace=wrap;html=1;" vertex="1" parent="9DDESfRtM6QVncBbzeUB-18">
          <mxGeometry y="90" width="140" height="30" as="geometry" />
        </mxCell>
        <mxCell id="9DDESfRtM6QVncBbzeUB-22" value="&lt;font face=&quot;Comic Sans MS&quot;&gt;quantity&lt;/font&gt;" style="text;strokeColor=none;fillColor=none;align=left;verticalAlign=middle;spacingLeft=4;spacingRight=4;overflow=hidden;points=[[0,0.5],[1,0.5]];portConstraint=eastwest;rotatable=0;whiteSpace=wrap;html=1;" vertex="1" parent="9DDESfRtM6QVncBbzeUB-18">
          <mxGeometry y="120" width="140" height="30" as="geometry" />
        </mxCell>
        <mxCell id="9DDESfRtM6QVncBbzeUB-23" value="&lt;font face=&quot;Comic Sans MS&quot;&gt;&lt;b&gt;Routes&lt;/b&gt;&lt;/font&gt;" style="swimlane;fontStyle=0;childLayout=stackLayout;horizontal=1;startSize=30;horizontalStack=0;resizeParent=1;resizeParentMax=0;resizeLast=0;collapsible=1;marginBottom=0;whiteSpace=wrap;html=1;shadow=0;fillColor=#fff2cc;strokeColor=#d6b656;" vertex="1" parent="1">
          <mxGeometry x="497" y="381" width="140" height="180" as="geometry" />
        </mxCell>
        <mxCell id="9DDESfRtM6QVncBbzeUB-24" value="&lt;font face=&quot;Comic Sans MS&quot;&gt;route_id&lt;/font&gt;" style="text;strokeColor=none;fillColor=none;align=left;verticalAlign=middle;spacingLeft=4;spacingRight=4;overflow=hidden;points=[[0,0.5],[1,0.5]];portConstraint=eastwest;rotatable=0;whiteSpace=wrap;html=1;" vertex="1" parent="9DDESfRtM6QVncBbzeUB-23">
          <mxGeometry y="30" width="140" height="30" as="geometry" />
        </mxCell>
        <mxCell id="9DDESfRtM6QVncBbzeUB-25" value="&lt;font face=&quot;Comic Sans MS&quot;&gt;shipment_id&lt;/font&gt;" style="text;strokeColor=none;fillColor=none;align=left;verticalAlign=middle;spacingLeft=4;spacingRight=4;overflow=hidden;points=[[0,0.5],[1,0.5]];portConstraint=eastwest;rotatable=0;whiteSpace=wrap;html=1;" vertex="1" parent="9DDESfRtM6QVncBbzeUB-23">
          <mxGeometry y="60" width="140" height="30" as="geometry" />
        </mxCell>
        <mxCell id="9DDESfRtM6QVncBbzeUB-26" value="&lt;font face=&quot;Comic Sans MS&quot;&gt;origin&lt;/font&gt;" style="text;strokeColor=none;fillColor=none;align=left;verticalAlign=middle;spacingLeft=4;spacingRight=4;overflow=hidden;points=[[0,0.5],[1,0.5]];portConstraint=eastwest;rotatable=0;whiteSpace=wrap;html=1;" vertex="1" parent="9DDESfRtM6QVncBbzeUB-23">
          <mxGeometry y="90" width="140" height="30" as="geometry" />
        </mxCell>
        <mxCell id="9DDESfRtM6QVncBbzeUB-27" value="&lt;font face=&quot;Comic Sans MS&quot;&gt;destination&lt;/font&gt;" style="text;strokeColor=none;fillColor=none;align=left;verticalAlign=middle;spacingLeft=4;spacingRight=4;overflow=hidden;points=[[0,0.5],[1,0.5]];portConstraint=eastwest;rotatable=0;whiteSpace=wrap;html=1;" vertex="1" parent="9DDESfRtM6QVncBbzeUB-23">
          <mxGeometry y="120" width="140" height="30" as="geometry" />
        </mxCell>
        <mxCell id="9DDESfRtM6QVncBbzeUB-28" value="&lt;font face=&quot;Comic Sans MS&quot;&gt;distance_km&lt;/font&gt;" style="text;strokeColor=none;fillColor=none;align=left;verticalAlign=middle;spacingLeft=4;spacingRight=4;overflow=hidden;points=[[0,0.5],[1,0.5]];portConstraint=eastwest;rotatable=0;whiteSpace=wrap;html=1;" vertex="1" parent="9DDESfRtM6QVncBbzeUB-23">
          <mxGeometry y="150" width="140" height="30" as="geometry" />
        </mxCell>
        <mxCell id="9DDESfRtM6QVncBbzeUB-39" value="" style="endArrow=none;html=1;rounded=0;entryX=0;entryY=0.5;entryDx=0;entryDy=0;exitX=1;exitY=0.5;exitDx=0;exitDy=0;" edge="1" parent="1" source="9DDESfRtM6QVncBbzeUB-14" target="9DDESfRtM6QVncBbzeUB-20">
          <mxGeometry width="50" height="50" relative="1" as="geometry">
            <mxPoint x="255" y="526" as="sourcePoint" />
            <mxPoint x="305" y="474" as="targetPoint" />
          </mxGeometry>
        </mxCell>
        <mxCell id="9DDESfRtM6QVncBbzeUB-41" value="" style="endArrow=none;html=1;rounded=0;entryX=0;entryY=0.5;entryDx=0;entryDy=0;exitX=1;exitY=0.5;exitDx=0;exitDy=0;" edge="1" parent="1" source="9DDESfRtM6QVncBbzeUB-14" target="9DDESfRtM6QVncBbzeUB-25">
          <mxGeometry width="50" height="50" relative="1" as="geometry">
            <mxPoint x="240" y="516" as="sourcePoint" />
            <mxPoint x="305" y="476" as="targetPoint" />
          </mxGeometry>
        </mxCell>
        <mxCell id="9DDESfRtM6QVncBbzeUB-42" value="" style="endArrow=none;html=1;rounded=0;entryX=1;entryY=0.5;entryDx=0;entryDy=0;exitX=0;exitY=0.5;exitDx=0;exitDy=0;" edge="1" parent="1" source="9DDESfRtM6QVncBbzeUB-6" target="9DDESfRtM6QVncBbzeUB-21">
          <mxGeometry width="50" height="50" relative="1" as="geometry">
            <mxPoint x="656" y="465" as="sourcePoint" />
            <mxPoint x="410" y="400" as="targetPoint" />
            <Array as="points" />
          </mxGeometry>
        </mxCell>
        <mxCell id="9DDESfRtM6QVncBbzeUB-44" value="" style="endArrow=none;html=1;rounded=0;entryX=1;entryY=0.5;entryDx=0;entryDy=0;exitX=0;exitY=0.5;exitDx=0;exitDy=0;" edge="1" parent="1" source="9DDESfRtM6QVncBbzeUB-15" target="9DDESfRtM6QVncBbzeUB-2">
          <mxGeometry width="50" height="50" relative="1" as="geometry">
            <mxPoint x="360" y="450" as="sourcePoint" />
            <mxPoint x="410" y="400" as="targetPoint" />
          </mxGeometry>
        </mxCell>
        <mxCell id="9DDESfRtM6QVncBbzeUB-45" value="" style="endArrow=none;html=1;rounded=0;exitX=0;exitY=0.5;exitDx=0;exitDy=0;entryX=1;entryY=0.5;entryDx=0;entryDy=0;" edge="1" parent="1" source="9DDESfRtM6QVncBbzeUB-17" target="9DDESfRtM6QVncBbzeUB-10">
          <mxGeometry width="50" height="50" relative="1" as="geometry">
            <mxPoint x="360" y="450" as="sourcePoint" />
            <mxPoint x="410" y="400" as="targetPoint" />
          </mxGeometry>
        </mxCell>
      </root>
    </mxGraphModel>
  </diagram>
</mxfile>
